<svg width="16" height="15" viewBox="0 0 16 15" fill="none" xmlns="http://www.w3.org/2000/svg">
<path fill-rule="evenodd" clip-rule="evenodd" d="M4.65944 0.0366352C5.50484 0.00106791 5.77439 -0.00683594 7.92789 -0.00683594C10.0814 -0.00683594 10.3509 0.00172656 11.1956 0.0366352C12.0403 0.0715439 12.6169 0.194712 13.1214 0.373208C13.6497 0.555655 14.1289 0.840852 14.5253 1.2097C14.9289 1.5713 15.2403 2.00865 15.4392 2.4921C15.6352 2.95316 15.7693 3.48008 15.8082 4.25071C15.8471 5.02463 15.8558 5.27096 15.8558 7.23836C15.8558 9.20642 15.8464 9.45276 15.8082 10.2254C15.77 10.996 15.6352 11.5229 15.4392 11.984C15.2403 12.4675 14.9284 12.9056 14.5253 13.2677C14.1289 13.6365 13.6497 13.9211 13.1214 14.1029C12.6169 14.282 12.0403 14.4045 11.1971 14.4401C10.3509 14.4757 10.0814 14.4836 7.92789 14.4836C5.77439 14.4836 5.50484 14.475 4.65944 14.4401C3.8162 14.4052 3.23962 14.282 2.73512 14.1029C2.20606 13.921 1.72671 13.636 1.33044 13.2677C0.927116 12.9059 0.614999 12.468 0.415854 11.9846C0.220539 11.5236 0.086486 10.9966 0.0475673 10.226C0.00864859 9.4521 0 9.20576 0 7.23836C0 5.2703 0.00936931 5.02397 0.0475673 4.25202C0.0857653 3.48008 0.220539 2.95316 0.415854 2.4921C0.615293 2.0087 0.927648 1.57085 1.33116 1.20904C1.72687 0.840524 2.20573 0.555288 2.7344 0.373208C3.2389 0.194712 3.81548 0.0722026 4.65872 0.0366352H4.65944ZM11.1315 1.34077C10.2954 1.30586 10.0446 1.29862 7.92789 1.29862C5.81114 1.29862 5.56033 1.30586 4.7243 1.34077C3.95097 1.37305 3.53151 1.49094 3.25188 1.5904C2.88215 1.72213 2.61764 1.87823 2.34017 2.13182C2.07714 2.36567 1.87471 2.65036 1.74774 2.96501C1.63891 3.22057 1.5099 3.60391 1.47459 4.31064C1.43639 5.07468 1.42846 5.3039 1.42846 7.23836C1.42846 9.17283 1.43639 9.40204 1.47459 10.1661C1.5099 10.8728 1.63891 11.2562 1.74774 11.5117C1.87459 11.8259 2.07711 12.1111 2.34017 12.3449C2.59602 12.5853 2.90809 12.7704 3.25188 12.8863C3.53151 12.9858 3.95097 13.1037 4.7243 13.136C5.56033 13.1709 5.81042 13.1781 7.92789 13.1781C10.0454 13.1781 10.2954 13.1709 11.1315 13.136C11.9048 13.1037 12.3243 12.9858 12.6039 12.8863C12.9736 12.7546 13.2381 12.5985 13.5156 12.3449C13.7787 12.1111 13.9812 11.8259 14.108 11.5117C14.2169 11.2562 14.3459 10.8728 14.3812 10.1661C14.4194 9.40204 14.4273 9.17283 14.4273 7.23836C14.4273 5.3039 14.4194 5.07468 14.3812 4.31064C14.3459 3.60391 14.2169 3.22057 14.108 2.96501C13.9639 2.62712 13.7931 2.3854 13.5156 2.13182C13.2597 1.89145 12.9482 1.70646 12.6039 1.5904C12.3243 1.49094 11.9048 1.37305 11.1315 1.34077ZM6.91528 9.47186C7.4808 9.687 8.1105 9.71603 8.69684 9.55401C9.28318 9.39198 9.78978 9.04895 10.1301 8.5835C10.4705 8.11804 10.6234 7.55904 10.5629 7.00198C10.5023 6.44491 10.232 5.92433 9.79815 5.52916C9.52156 5.27655 9.18713 5.08312 8.81893 4.96281C8.45073 4.8425 8.05793 4.79829 7.66879 4.83336C7.27965 4.86844 6.90386 4.98193 6.56847 5.16566C6.23309 5.3494 5.94645 5.5988 5.7292 5.89593C5.51194 6.19305 5.36948 6.5305 5.31206 6.88398C5.25463 7.23746 5.28369 7.59818 5.39712 7.94017C5.51055 8.28216 5.70554 8.59691 5.96806 8.86176C6.23057 9.12662 6.55407 9.33498 6.91528 9.47186ZM5.04646 4.60506C5.42486 4.25925 5.87407 3.98494 6.36847 3.79779C6.86287 3.61064 7.39276 3.51431 7.92789 3.51431C8.46302 3.51431 8.99291 3.61064 9.4873 3.79779C9.9817 3.98494 10.4309 4.25925 10.8093 4.60506C11.1877 4.95087 11.4879 5.36141 11.6927 5.81323C11.8974 6.26505 12.0028 6.74931 12.0028 7.23836C12.0028 7.72741 11.8974 8.21167 11.6927 8.6635C11.4879 9.11532 11.1877 9.52585 10.8093 9.87166C10.0451 10.5701 9.00863 10.9624 7.92789 10.9624C6.84714 10.9624 5.81066 10.5701 5.04646 9.87166C4.28226 9.17327 3.85294 8.22604 3.85294 7.23836C3.85294 6.25068 4.28226 5.30346 5.04646 4.60506ZM12.9066 4.06892C13.0004 3.98808 13.0754 3.89087 13.1274 3.78305C13.1793 3.67522 13.207 3.55897 13.2089 3.44117C13.2108 3.32338 13.1868 3.20644 13.1383 3.09728C13.0898 2.98811 13.0179 2.88895 12.9268 2.80564C12.8356 2.72234 12.7271 2.6566 12.6076 2.61232C12.4882 2.56803 12.3602 2.54609 12.2313 2.54781C12.1024 2.54953 11.9752 2.57486 11.8573 2.62231C11.7393 2.66976 11.6329 2.73837 11.5444 2.82406C11.3724 2.99072 11.2782 3.21209 11.2819 3.44117C11.2855 3.67026 11.3867 3.88903 11.564 4.05103C11.7413 4.21304 11.9807 4.30553 12.2313 4.30887C12.482 4.3122 12.7242 4.22613 12.9066 4.06892Z" fill="white"/>
</svg>
